<svg xmlns="http://www.w3.org/2000/svg" x="0px" y="0px"
width="40" height="40"
viewBox="0 0 172 172"
style=" fill:#000000;"><g fill="none" fill-rule="nonzero" stroke="none" stroke-width="1" stroke-linecap="butt" stroke-linejoin="miter" stroke-miterlimit="10" stroke-dasharray="" stroke-dashoffset="0" font-family="none" font-weight="none" font-size="none" text-anchor="none" style="mix-blend-mode: normal"><path d="M0,172v-172h172v172z" fill="none"></path><g fill="#ffffff"><path d="M85.81103,17.2c-39.15891,0 -70.95,31.79109 -70.95,70.95c0,39.15891 31.79109,70.95 70.95,70.95c39.15891,0 70.95,-31.79109 70.95,-70.95c0,-39.15891 -31.79109,-70.95 -70.95,-70.95zM85.81103,21.5c36.83499,0 66.65,29.81501 66.65,66.65c0,36.83499 -29.81501,66.65 -66.65,66.65c-36.83499,0 -66.65,-29.81501 -66.65,-66.65c0,-36.83499 29.81501,-66.65 66.65,-66.65zM85.81103,27.95c-1.1868,0 -2.15,0.9632 -2.15,2.15c0,1.1868 0.9632,2.15 2.15,2.15c1.1868,0 2.15,-0.9632 2.15,-2.15c0,-1.1868 -0.9632,-2.15 -2.15,-2.15zM74.07002,29.10478c-1.1653,0.2322 -1.92233,1.36683 -1.69229,2.53213c0.23005,1.1653 1.36683,1.91814 2.53213,1.68809c1.1653,-0.2322 1.91814,-1.36263 1.68809,-2.52793c-0.2322,-1.1653 -1.36263,-1.92449 -2.52793,-1.69229zM97.55625,29.10478c-1.16315,-0.23005 -2.29573,0.52279 -2.52793,1.68809c-0.2322,1.1653 0.52279,2.29573 1.68809,2.52793c1.1653,0.2322 2.29573,-0.52279 2.52793,-1.68809c0.2322,-1.1653 -0.52279,-2.29573 -1.68809,-2.52793zM63.60977,32.36758c-0.27923,-0.00212 -0.56152,0.05036 -0.83564,0.16377c-1.0965,0.45365 -1.61898,1.71063 -1.16318,2.80928c0.45365,1.0965 1.71063,1.61898 2.80928,1.16318c1.09865,-0.4558 1.61898,-1.71063 1.16318,-2.80928c-0.34185,-0.82238 -1.13594,-1.3206 -1.97363,-1.32695zM108.0123,32.36758c-0.83769,0.00605 -1.63178,0.50458 -1.97363,1.32695c-0.45365,1.0965 0.06668,2.35348 1.16318,2.80928c1.0965,0.45365 2.35348,-0.06668 2.80928,-1.16318c0.45365,-1.0965 -0.06668,-2.35348 -1.16318,-2.80928c-0.27412,-0.11395 -0.55641,-0.16578 -0.83564,-0.16377zM53.15371,37.76777c-0.27426,0.05231 -0.54274,0.15887 -0.78945,0.32334c-0.98685,0.66005 -1.25214,1.9946 -0.59209,2.98145c0.66005,0.98685 1.9946,1.25634 2.98145,0.59629c0.98685,-0.66005 1.25214,-1.99879 0.59209,-2.98564c-0.49504,-0.74014 -1.36921,-1.07235 -2.19199,-0.91543zM118.46416,37.76777c-0.82278,-0.15772 -1.69695,0.17788 -2.19199,0.91963c-0.66005,0.98685 -0.39476,2.32139 0.59209,2.98144c0.98685,0.66005 2.3214,0.39476 2.98145,-0.59209c0.66005,-0.98685 0.39476,-2.3214 -0.59209,-2.98145c-0.24671,-0.16501 -0.51519,-0.27497 -0.78945,-0.32754zM44.76367,44.95264c-0.5504,0 -1.10087,0.20956 -1.52012,0.62988c-0.84065,0.84065 -0.84065,2.20173 0,3.04023c0.84065,0.84065 2.20174,0.84065 3.04024,0c0.84065,-0.84065 0.84065,-2.20173 0,-3.04023c-0.41925,-0.42032 -0.96972,-0.62988 -1.52012,-0.62988zM126.8584,44.95264c-0.55013,0 -1.09979,0.21063 -1.52012,0.62988c-0.84065,0.84065 -0.84065,2.20173 0,3.04023c0.84065,0.84065 2.20174,0.84065 3.04024,0c0.84065,-0.84065 0.84065,-2.20173 0,-3.04023c-0.41925,-0.41925 -0.96999,-0.62988 -1.52012,-0.62988zM86,47.3c-11.84866,0 -21.5,9.65135 -21.5,21.5c0,6.38484 2.93094,11.96846 7.36963,15.91084c-12.90585,5.12158 -22.74045,16.68071 -24.55283,31.12041l4.26641,0.5375c1.73098,-13.79119 11.55816,-24.92484 24.30088,-28.84863l-0.03779,-0.12597c3.06829,1.68958 6.41273,2.90586 10.15371,2.90586c3.74098,0 7.08542,-1.21627 10.15371,-2.90586l-0.03779,0.12597c12.74271,3.92379 22.5699,15.05744 24.30088,28.84863l4.26641,-0.5375c-1.81238,-14.4397 -11.64698,-25.99883 -24.55283,-31.12041c4.43869,-3.94238 7.36963,-9.526 7.36963,-15.91084c0,-11.84865 -9.65134,-21.5 -21.5,-21.5zM86,51.6c9.52477,0 17.2,7.67524 17.2,17.2c0,9.52476 -7.67523,17.2 -17.2,17.2c-9.52477,0 -17.2,-7.67524 -17.2,-17.2c0,-9.52476 7.67523,-17.2 17.2,-17.2zM133.67373,53.78359c-0.27436,0.05241 -0.5422,0.15833 -0.78945,0.32334c-0.98685,0.66005 -1.25634,1.99459 -0.59629,2.98144c0.66005,0.98685 1.99879,1.25214 2.98564,0.59209c0.98685,-0.66005 1.25214,-1.9946 0.59209,-2.98145c-0.49504,-0.74014 -1.36891,-1.07265 -2.19199,-0.91543zM37.94834,53.78779c-0.82278,-0.15722 -1.69696,0.17529 -2.19199,0.91543c-0.66005,0.98685 -0.39476,2.3214 0.59209,2.98145c0.98685,0.66005 2.32559,0.39476 2.98564,-0.59209c0.66005,-0.98685 0.39056,-2.3214 -0.59629,-2.98145c-0.24671,-0.16501 -0.51519,-0.27093 -0.78945,-0.32334zM139.46025,63.78193c-0.27923,-0.00212 -0.56572,0.05036 -0.83984,0.16377c-1.0965,0.45365 -1.61898,1.71482 -1.16318,2.81347c0.45365,1.0965 1.71063,1.61898 2.80928,1.16318c1.0965,-0.45365 1.61898,-1.71483 1.16318,-2.81348c-0.34185,-0.82238 -1.13174,-1.3206 -1.96943,-1.32695zM32.16602,63.78613c-0.8385,0.00554 -1.6292,0.50296 -1.96943,1.32695c-0.45365,1.0965 0.06668,2.35348 1.16318,2.80928c1.0965,0.45365 2.35348,-0.06668 2.80928,-1.16318c0.45365,-1.0965 -0.06668,-2.35348 -1.16318,-2.80928c-0.27466,-0.11395 -0.56034,-0.16562 -0.83984,-0.16377zM29.30215,74.7167c-1.1653,-0.23005 -2.29993,0.52279 -2.53213,1.68809c-0.2322,1.1653 0.52698,2.29993 1.69228,2.53213c1.1653,0.2322 2.29573,-0.52699 2.52793,-1.69229c0.2322,-1.1653 -0.52279,-2.29573 -1.68809,-2.52793zM142.32832,74.7167c-1.1653,0.2322 -1.92234,1.36263 -1.69229,2.52793c0.2322,1.1653 1.36683,1.92234 2.53213,1.69229c1.1653,-0.2322 1.91814,-1.36683 1.68809,-2.53213c-0.23005,-1.1653 -1.36263,-1.92029 -2.52793,-1.68809zM27.76103,86c-1.1868,0 -2.15,0.9632 -2.15,2.15c0,1.1868 0.9632,2.15 2.15,2.15c1.1868,0 2.15,-0.9632 2.15,-2.15c0,-1.1868 -0.9632,-2.15 -2.15,-2.15zM143.86103,86c-1.1868,0 -2.15,0.9632 -2.15,2.15c0,1.1868 0.9632,2.15 2.15,2.15c1.1868,0 2.15,-0.9632 2.15,-2.15c0,-1.1868 -0.9632,-2.15 -2.15,-2.15zM143.16816,97.36309c-1.1653,-0.2322 -2.29573,0.52699 -2.52793,1.69229c-0.2322,1.1653 0.52279,2.29573 1.68809,2.52793c1.1653,0.2322 2.29993,-0.52279 2.53213,-1.68809c0.2322,-1.1653 -0.52698,-2.29993 -1.69228,-2.53213zM28.45811,97.36728c-1.1653,0.2322 -1.91814,1.36263 -1.68809,2.52793c0.2322,1.1653 1.36263,1.91814 2.52793,1.68809c1.1653,-0.2322 1.91814,-1.36263 1.68809,-2.52793c-0.2322,-1.1653 -1.36478,-1.92029 -2.52793,-1.68809zM139.43086,108.20967c-0.8385,0.00605 -1.63339,0.50458 -1.97363,1.32695c-0.45365,1.0965 0.06668,2.35767 1.16318,2.81347c1.0965,0.45365 2.35348,-0.06668 2.80928,-1.16318c0.45365,-1.0965 -0.06668,-2.35768 -1.16318,-2.81348c-0.27466,-0.11395 -0.55614,-0.16578 -0.83564,-0.16377zM32.19541,108.21387c-0.27923,-0.00201 -0.56152,0.04982 -0.83564,0.16377c-1.0965,0.45365 -1.61898,1.71063 -1.16318,2.80928c0.45365,1.0965 1.71063,1.61898 2.80928,1.16318c1.09865,-0.4558 1.61898,-1.71063 1.16318,-2.80928c-0.34185,-0.82237 -1.13594,-1.32091 -1.97363,-1.32695zM134.48418,118.28359c-0.82278,-0.15722 -1.69695,0.17529 -2.19199,0.91543c-0.66005,0.98685 -0.39476,2.3214 0.59209,2.98145c0.98685,0.66005 2.32139,0.39476 2.98144,-0.59209c0.66005,-0.98685 0.39476,-2.32139 -0.59209,-2.98144c-0.24671,-0.16501 -0.51519,-0.27093 -0.78945,-0.32334zM37.14209,118.28779c-0.27426,0.05241 -0.54274,0.15833 -0.78945,0.32334c-0.98685,0.66005 -1.25214,1.99459 -0.59209,2.98145c0.66005,0.98685 1.9946,1.25214 2.98145,0.59209c0.98685,-0.66005 1.25214,-1.9946 0.59209,-2.98145c-0.49504,-0.74014 -1.36921,-1.07265 -2.19199,-0.91543zM44.76367,127.04736c-0.5504,0 -1.10087,0.20956 -1.52012,0.62988c-0.84065,0.84065 -0.84065,2.20173 0,3.04023c0.84065,0.84065 2.20174,0.84065 3.04024,0c0.84065,-0.84065 0.84065,-2.20173 0,-3.04023c-0.41925,-0.42032 -0.96972,-0.62988 -1.52012,-0.62988zM126.8584,127.04736c-0.5504,0 -1.10087,0.21063 -1.52012,0.62988c-0.84065,0.84065 -0.84065,2.20173 0,3.04023c0.84065,0.84065 2.20174,0.84065 3.04024,0c0.84065,-0.84065 0.84065,-2.20173 0,-3.04023c-0.41925,-0.41925 -0.96972,-0.62988 -1.52012,-0.62988zM53.97256,134.29941c-0.82278,-0.15722 -1.70116,0.17949 -2.19619,0.91963c-0.66005,0.98685 -0.39056,2.3214 0.59629,2.98145c0.98685,0.66005 2.3214,0.39476 2.98145,-0.59209c0.66005,-0.98685 0.39476,-2.32559 -0.59209,-2.98564c-0.24671,-0.16501 -0.51519,-0.27093 -0.78945,-0.32334zM117.65791,134.29941c-0.27426,0.05241 -0.54274,0.15833 -0.78945,0.32334c-0.98685,0.66005 -1.25214,1.99879 -0.59209,2.98564c0.66005,0.98685 1.9946,1.25214 2.98145,0.59209c0.98685,-0.66005 1.25214,-1.9946 0.59209,-2.98145c-0.49504,-0.74014 -1.36921,-1.07685 -2.19199,-0.91963zM63.58457,139.62822c-0.83769,0.00635 -1.63178,0.50458 -1.97363,1.32695c-0.45365,1.0965 0.06668,2.35348 1.16318,2.80928c1.0965,0.4558 2.35767,-0.06668 2.81347,-1.16318c0.4558,-1.0965 -0.06668,-2.35348 -1.16318,-2.80928c-0.27412,-0.11341 -0.56061,-0.16589 -0.83984,-0.16377zM108.0417,139.62822c-0.2795,-0.00212 -0.56518,0.05036 -0.83984,0.16377c-1.0965,0.45365 -1.61898,1.71063 -1.16318,2.80928c0.45365,1.0965 1.71483,1.61898 2.81348,1.16318c1.0965,-0.45365 1.61898,-1.71063 1.16318,-2.80928c-0.34024,-0.82237 -1.13513,-1.32061 -1.97363,-1.32695zM74.90986,142.9708c-1.16315,-0.23005 -2.29993,0.52698 -2.53213,1.69228c-0.2322,1.1653 0.52699,2.29573 1.69229,2.52793c1.1653,0.2322 2.29573,-0.52279 2.52793,-1.68809c0.2322,-1.1653 -0.52279,-2.29993 -1.68809,-2.53213zM96.71641,142.9792c-1.1653,0.2322 -1.91814,1.36263 -1.68809,2.52793c0.2322,1.1653 1.36263,1.91814 2.52793,1.68809c1.1653,-0.2322 1.91814,-1.36263 1.68809,-2.52793c-0.23005,-1.1653 -1.36263,-1.92029 -2.52793,-1.68809zM85.81103,144.05c-1.1868,0 -2.15,0.9632 -2.15,2.15c0,1.1868 0.9632,2.15 2.15,2.15c1.1868,0 2.15,-0.9632 2.15,-2.15c0,-1.1868 -0.9632,-2.15 -2.15,-2.15z"></path></g></g></svg>
