<svg xmlns="http://www.w3.org/2000/svg" x="0px" y="0px"
width="40" height="40"
viewBox="0 0 172 172"
style=" fill:#000000;"><g fill="none" fill-rule="nonzero" stroke="none" stroke-width="1" stroke-linecap="butt" stroke-linejoin="miter" stroke-miterlimit="10" stroke-dasharray="" stroke-dashoffset="0" font-family="none" font-weight="none" font-size="none" text-anchor="none" style="mix-blend-mode: normal"><path d="M0,172v-172h172v172z" fill="none"></path><g fill="#ffffff"><path d="M55.23547,10.75c-0.11231,-0.00003 -0.22451,0.00699 -0.33594,0.021c-3.63527,0.4549 -7.08304,3.08843 -7.98901,7.18066c-2.84075,11.73889 -9.28552,36.20966 -9.28552,49.23584v29.5625v23.87781c-0.8605,-0.07073 -1.70572,-0.34119 -2.6875,-0.34119c-10.41961,0 -18.8125,8.26437 -18.8125,18.60254v6.36706c0,10.33817 8.39289,18.60254 18.8125,18.60254c10.41961,0 18.8125,-8.26437 18.8125,-18.60254v-6.36706v-28.63867c3.14723,1.16162 5.375,4.30729 5.375,7.99951v21.5v5.375c0,9.66148 7.48461,17.60854 17.01208,18.71277c0.01398,0.00186 0.02798,0.00361 0.04199,0.00525c11.07058,1.11163 20.57092,-7.78055 20.57092,-18.58679v-5.73193c0,-9.2088 -6.50613,-17.38549 -15.74182,-18.88074c-1.92365,-0.38304 -3.83904,-0.5054 -5.75818,-0.33594v-12.80762v-40.3125c0,-6.70328 -1.77126,-15.95188 -3.82129,-25.15332c-2.05002,-9.20144 -4.4069,-18.29364 -5.64795,-24.06677c-0.00173,-0.00525 -0.00348,-0.0105 -0.00525,-0.01575c-0.8968,-4.05137 -4.53173,-7.20166 -8.96008,-7.20166zM91.375,10.75c-0.96921,-0.01371 -1.87072,0.49551 -2.35932,1.33266c-0.4886,0.83715 -0.4886,1.87253 0,2.70968c0.4886,0.83715 1.39011,1.34637 2.35932,1.33266h29.5625v8.0625h-29.5625c-0.96921,-0.01371 -1.87072,0.49551 -2.35932,1.33266c-0.4886,0.83715 -0.4886,1.87253 0,2.70968c0.4886,0.83715 1.39011,1.34637 2.35932,1.33266h29.5625v8.0625h-29.5625c-0.96921,-0.01371 -1.87072,0.49551 -2.35932,1.33266c-0.4886,0.83715 -0.4886,1.87253 0,2.70968c0.4886,0.83715 1.39011,1.34637 2.35932,1.33266h29.5625v8.0625h-29.5625c-0.96921,-0.01371 -1.87072,0.49551 -2.35932,1.33266c-0.4886,0.83715 -0.4886,1.87253 0,2.70968c0.4886,0.83715 1.39011,1.34637 2.35932,1.33266h29.5625v8.0625h-29.5625c-0.96921,-0.01371 -1.87072,0.49551 -2.35932,1.33266c-0.4886,0.83715 -0.4886,1.87253 0,2.70968c0.4886,0.83715 1.39011,1.34637 2.35932,1.33266h29.5625v8.0625h-29.5625c-0.96921,-0.01371 -1.87072,0.49551 -2.35932,1.33266c-0.4886,0.83715 -0.4886,1.87253 0,2.70968c0.4886,0.83715 1.39011,1.34637 2.35932,1.33266h29.5625v8.0625h-29.5625c-0.96921,-0.01371 -1.87072,0.49551 -2.35932,1.33266c-0.4886,0.83715 -0.4886,1.87253 0,2.70968c0.4886,0.83715 1.39011,1.34637 2.35932,1.33266h29.5625v51.0625c0,8.87312 7.25188,16.125 16.125,16.125c8.87312,0 16.125,-7.25188 16.125,-16.125v-121.60937c0,-8.4747 -6.89771,-15.45312 -15.3324,-15.45312h-14.2301c-0.10004,0.00142 -0.19993,0.00843 -0.29919,0.021c-0.10969,-0.01379 -0.22013,-0.02081 -0.33069,-0.021zM55.51892,16.125h1.29651c1.90704,0 3.3379,1.30526 3.71106,2.98145c1.29095,6.00351 3.6365,15.02285 5.65845,24.09827c2.02288,9.07961 3.69006,18.27251 3.69006,23.98279v40.3125v16.125c0.00094,0.93203 0.48466,1.79705 1.27825,2.28583c0.79359,0.48878 1.78375,0.53153 2.61652,0.11297c1.7974,-0.90347 3.18561,-0.71712 6.26733,-0.09973c0.03314,0.00587 0.06639,0.01112 0.09973,0.01575c6.58465,1.0597 11.23816,6.88355 11.23816,13.58447v5.73193c0,7.6516 -6.71662,14.02397 -14.63953,13.23804c-6.92529,-0.81345 -12.23547,-6.48848 -12.23547,-13.36926v-5.375v-21.5c0,-7.43323 -5.83205,-13.87842 -13.37976,-13.87842c-4.74898,0 -8.12024,-2.99371 -8.12024,-7.62158v-2.6875v-26.875c0,-11.15264 6.28232,-36.19405 9.1438,-48.02332c0.00543,-0.01744 0.01068,-0.03494 0.01575,-0.05249c0.35836,-1.6192 1.93823,-2.78706 3.35938,-2.98669zM126.3125,16.125h11.5426c5.47581,0 9.9574,4.50795 9.9574,10.07813v121.60938c0,5.96726 -4.78274,10.75 -10.75,10.75c-5.96726,0 -10.75,-4.78274 -10.75,-10.75v-53.29858c0.04797,-0.29023 0.04797,-0.58636 0,-0.87659v-12.56091c0.04797,-0.29023 0.04797,-0.58636 0,-0.87659v-12.56091c0.04797,-0.29023 0.04797,-0.58636 0,-0.87659v-12.56091c0.04797,-0.29023 0.04797,-0.58636 0,-0.87659v-12.56091c0.04797,-0.29023 0.04797,-0.58636 0,-0.87659v-12.56091c0.04797,-0.29023 0.04797,-0.58636 0,-0.87659zM134.375,21.5c-1.4835,0 -2.6875,1.204 -2.6875,2.6875c0,1.4835 1.204,2.6875 2.6875,2.6875h5.375c1.4835,0 2.6875,-1.204 2.6875,-2.6875c0,-1.4835 -1.204,-2.6875 -2.6875,-2.6875zM134.375,34.9375c-1.4835,0 -2.6875,1.204 -2.6875,2.6875c0,1.4835 1.204,2.6875 2.6875,2.6875h5.375c1.4835,0 2.6875,-1.204 2.6875,-2.6875c0,-1.4835 -1.204,-2.6875 -2.6875,-2.6875zM134.375,48.375c-1.4835,0 -2.6875,1.204 -2.6875,2.6875c0,1.4835 1.204,2.6875 2.6875,2.6875h5.375c1.4835,0 2.6875,-1.204 2.6875,-2.6875c0,-1.4835 -1.204,-2.6875 -2.6875,-2.6875zM134.375,61.8125c-1.4835,0 -2.6875,1.204 -2.6875,2.6875c0,1.4835 1.204,2.6875 2.6875,2.6875h5.375c1.4835,0 2.6875,-1.204 2.6875,-2.6875c0,-1.4835 -1.204,-2.6875 -2.6875,-2.6875zM134.375,75.25c-1.4835,0 -2.6875,1.204 -2.6875,2.6875c0,1.4835 1.204,2.6875 2.6875,2.6875h5.375c1.4835,0 2.6875,-1.204 2.6875,-2.6875c0,-1.4835 -1.204,-2.6875 -2.6875,-2.6875zM56.4375,80.625c-2.96969,0 -5.375,2.40531 -5.375,5.375c0,2.96969 2.40531,5.375 5.375,5.375c2.96969,0 5.375,-2.40531 5.375,-5.375c0,-2.96969 -2.40531,-5.375 -5.375,-5.375zM134.375,88.6875c-1.4835,0 -2.6875,1.204 -2.6875,2.6875c0,1.4835 1.204,2.6875 2.6875,2.6875h5.375c1.4835,0 2.6875,-1.204 2.6875,-2.6875c0,-1.4835 -1.204,-2.6875 -2.6875,-2.6875zM134.375,102.125c-1.4835,0 -2.6875,1.204 -2.6875,2.6875c0,1.4835 1.204,2.6875 2.6875,2.6875h5.375c1.4835,0 2.6875,-1.204 2.6875,-2.6875c0,-1.4835 -1.204,-2.6875 -2.6875,-2.6875zM43,107.10107c1.57893,1.13994 3.38933,1.98149 5.375,2.37256v29.41553v6.36706c0,7.48533 -5.79711,13.22754 -13.4375,13.22754c-7.64039,0 -13.4375,-5.74221 -13.4375,-13.22754v-6.36706c0,-7.48534 5.79711,-13.22754 13.4375,-13.22754c2.2447,0 2.89623,-0.02499 4.53516,0.51441c0.81853,0.26915 1.71647,0.12956 2.41466,-0.37538c0.69819,-0.50494 1.11196,-1.314 1.11268,-2.17564zM134.375,115.5625c-1.4835,0 -2.6875,1.204 -2.6875,2.6875c0,1.4835 1.204,2.6875 2.6875,2.6875h5.375c1.4835,0 2.6875,-1.204 2.6875,-2.6875c0,-1.4835 -1.204,-2.6875 -2.6875,-2.6875zM134.375,129c-1.4835,0 -2.6875,1.204 -2.6875,2.6875c0,1.4835 1.204,2.6875 2.6875,2.6875h5.375c1.4835,0 2.6875,-1.204 2.6875,-2.6875c0,-1.4835 -1.204,-2.6875 -2.6875,-2.6875zM34.9375,131.6875c-4.42216,0 -8.0625,3.64034 -8.0625,8.0625v5.375c0,4.42216 3.64034,8.0625 8.0625,8.0625c4.42216,0 8.0625,-3.64034 8.0625,-8.0625v-5.375c0,-4.42216 -3.64034,-8.0625 -8.0625,-8.0625zM77.9375,131.6875c-4.42216,0 -8.0625,3.64034 -8.0625,8.0625v5.375c0,4.42216 3.64034,8.0625 8.0625,8.0625c4.42216,0 8.0625,-3.64034 8.0625,-8.0625v-5.375c0,-4.42216 -3.64034,-8.0625 -8.0625,-8.0625zM34.9375,137.0625c1.49034,0 2.6875,1.19716 2.6875,2.6875v5.375c0,1.49034 -1.19716,2.6875 -2.6875,2.6875c-1.49034,0 -2.6875,-1.19716 -2.6875,-2.6875v-5.375c0,-1.49034 1.19716,-2.6875 2.6875,-2.6875zM77.9375,137.0625c1.49034,0 2.6875,1.19716 2.6875,2.6875v5.375c0,1.49034 -1.19716,2.6875 -2.6875,2.6875c-1.49034,0 -2.6875,-1.19716 -2.6875,-2.6875v-5.375c0,-1.49034 1.19716,-2.6875 2.6875,-2.6875zM134.375,142.4375c-1.4835,0 -2.6875,1.204 -2.6875,2.6875c0,1.4835 1.204,2.6875 2.6875,2.6875h5.375c1.4835,0 2.6875,-1.204 2.6875,-2.6875c0,-1.4835 -1.204,-2.6875 -2.6875,-2.6875z"></path></g></g></svg>
